<?xml version="1.0" encoding="UTF-8"?>
<!DOCTYPE svg PUBLIC "-//W3C//DTD SVG 1.1//EN" "http://www.w3.org/Graphics/SVG/1.1/DTD/svg11.dtd">
<svg version="1.2" width="37.84mm" height="9mm" viewBox="0 0 3784 900" preserveAspectRatio="xMidYMid" fill-rule="evenodd" stroke-width="28.222" stroke-linejoin="round" xmlns="http://www.w3.org/2000/svg" xmlnsOoo="http://xml.openoffice.org/svg/export" xmlnsXlink="http://www.w3.org/1999/xlink" xmlnsPresentation="http://sun.com/xmlns/staroffice/presentation" xmlnsSmil="http://www.w3.org/2001/SMIL20/" xmlnsAnim="urn:oasis:names:tc:opendocument:xmlns:animation:1.0" xmlSpace="preserve">
 <defs class="ClipPathGroup">
  <clipPath id="presentation_clip_path" clipPathUnits="userSpaceOnUse">
   <rect x="0" y="0" width="3784" height="900"/>
  </clipPath>
  <clipPath id="presentation_clip_path_shrink" clipPathUnits="userSpaceOnUse">
   <rect x="3" y="0" width="3777" height="899"/>
  </clipPath>
 </defs>
 <defs class="TextShapeIndex">
  <g oooSlide="id1" oooId-list="id3"/>
 </defs>
 <defs class="EmbeddedBulletChars">
  <g id="bullet-char-template-57356" transform="scale(0.00048828125,-0.00048828125)">
   <path d="M 580,1141 L 1163,571 580,0 -4,571 580,1141 Z"/>
  </g>
  <g id="bullet-char-template-57354" transform="scale(0.00048828125,-0.00048828125)">
   <path d="M 8,1128 L 1137,1128 1137,0 8,0 8,1128 Z"/>
  </g>
  <g id="bullet-char-template-10146" transform="scale(0.00048828125,-0.00048828125)">
   <path d="M 174,0 L 602,739 174,1481 1456,739 174,0 Z M 1358,739 L 309,1346 659,739 1358,739 Z"/>
  </g>
  <g id="bullet-char-template-10132" transform="scale(0.00048828125,-0.00048828125)">
   <path d="M 2015,739 L 1276,0 717,0 1260,543 174,543 174,936 1260,936 717,1481 1274,1481 2015,739 Z"/>
  </g>
  <g id="bullet-char-template-10007" transform="scale(0.00048828125,-0.00048828125)">
   <path d="M 0,-2 C -7,14 -16,27 -25,37 L 356,567 C 262,823 215,952 215,954 215,979 228,992 255,992 264,992 276,990 289,987 310,991 331,999 354,1012 L 381,999 492,748 772,1049 836,1024 860,1049 C 881,1039 901,1025 922,1006 886,937 835,863 770,784 769,783 710,716 594,584 L 774,223 C 774,196 753,168 711,139 L 727,119 C 717,90 699,76 672,76 641,76 570,178 457,381 L 164,-76 C 142,-110 111,-127 72,-127 30,-127 9,-110 8,-76 1,-67 -2,-52 -2,-32 -2,-23 -1,-13 0,-2 Z"/>
  </g>
  <g id="bullet-char-template-10004" transform="scale(0.00048828125,-0.00048828125)">
   <path d="M 285,-33 C 182,-33 111,30 74,156 52,228 41,333 41,471 41,549 55,616 82,672 116,743 169,778 240,778 293,778 328,747 346,684 L 369,508 C 377,444 397,411 428,410 L 1163,1116 C 1174,1127 1196,1133 1229,1133 1271,1133 1292,1118 1292,1087 L 1292,965 C 1292,929 1282,901 1262,881 L 442,47 C 390,-6 338,-33 285,-33 Z"/>
  </g>
  <g id="bullet-char-template-9679" transform="scale(0.00048828125,-0.00048828125)">
   <path d="M 813,0 C 632,0 489,54 383,161 276,268 223,411 223,592 223,773 276,916 383,1023 489,1130 632,1184 813,1184 992,1184 1136,1130 1245,1023 1353,916 1407,772 1407,592 1407,412 1353,268 1245,161 1136,54 992,0 813,0 Z"/>
  </g>
  <g id="bullet-char-template-8226" transform="scale(0.00048828125,-0.00048828125)">
   <path d="M 346,457 C 273,457 209,483 155,535 101,586 74,649 74,723 74,796 101,859 155,911 209,963 273,989 346,989 419,989 480,963 531,910 582,859 608,796 608,723 608,648 583,586 532,535 482,483 420,457 346,457 Z"/>
  </g>
  <g id="bullet-char-template-8211" transform="scale(0.00048828125,-0.00048828125)">
   <path d="M -4,459 L 1135,459 1135,606 -4,606 -4,459 Z"/>
  </g>
  <g id="bullet-char-template-61548" transform="scale(0.00048828125,-0.00048828125)">
   <path d="M 173,740 C 173,903 231,1043 346,1159 462,1274 601,1332 765,1332 928,1332 1067,1274 1183,1159 1299,1043 1357,903 1357,740 1357,577 1299,437 1183,322 1067,206 928,148 765,148 601,148 462,206 346,322 231,437 173,577 173,740 Z"/>
  </g>
 </defs>
 <defs class="TextEmbeddedBitmaps"/>
 <g>
  <g id="id2" class="Master_Slide">
   <g id="bg-id2" class="Background"/>
   <g id="bo-id2" class="BackgroundObjects"/>
  </g>
 </g>
 <g class="SlideGroup">
  <g>
   <g id="container-id1">
    <g id="id1" class="Slide" clip-path="url(#presentation_clip_path)">
     <g class="Page">
      <g class="Graphic">
       <g id="id3">
        <rect class="BoundingBox" stroke="none" fill="none" x="0" y="0" width="3784" height="900"/>
        <path fill="rgb(255,255,255)" stroke="none" d="M 13,191 L 13,875 113,875 113,380 119,380 323,874 406,874 610,380 617,380 617,875 716,875 716,191 589,191 369,723 361,723 140,191 13,191 13,191 Z"/>
        <path fill="rgb(255,255,255)" stroke="none" d="M 1101,886 C 1215,886 1295,831 1318,747 L 1222,730 C 1204,779 1160,803 1102,803 1016,803 958,748 955,649 L 1324,649 1324,614 C 1324,428 1212,356 1094,356 949,356 854,465 854,622 854,782 948,886 1101,886 L 1101,886 Z M 955,574 C 959,501 1013,438 1095,438 1173,438 1225,496 1225,574 L 955,574 955,574 Z"/>
        <path fill="rgb(255,255,255)" stroke="none" d="M 1826,488 C 1805,408 1741,356 1629,356 1512,356 1429,417 1429,508 1429,580 1473,629 1571,650 L 1659,669 C 1709,680 1732,702 1732,734 1732,774 1689,805 1623,805 1562,805 1523,780 1511,729 L 1413,744 C 1430,835 1507,886 1623,886 1749,886 1836,820 1836,727 1836,655 1789,610 1694,588 L 1611,569 C 1554,556 1529,537 1530,502 1529,463 1573,435 1630,435 1693,435 1722,469 1734,504 L 1826,488 1826,488 Z"/>
        <path fill="rgb(255,255,255)" stroke="none" d="M 2189,362 L 2083,362 2083,239 1982,239 1982,362 1906,362 1906,443 1982,443 1982,745 C 1981,839 2053,884 2133,882 2165,882 2187,876 2199,871 L 2181,789 C 2174,790 2161,793 2145,793 2112,793 2083,783 2083,725 L 2083,443 2189,443 2189,362 2189,362 Z"/>
        <path fill="rgb(255,255,255)" stroke="none" d="M 2515,886 C 2661,886 2757,780 2757,621 2757,462 2661,356 2515,356 2368,356 2272,462 2272,621 2272,780 2368,886 2515,886 L 2515,886 Z M 2515,802 C 2419,802 2375,719 2375,621 2375,523 2419,439 2515,439 2610,439 2655,523 2655,621 2655,719 2610,802 2515,802 L 2515,802 Z"/>
        <path fill="rgb(255,255,255)" stroke="none" d="M 2849,248 L 2876,248 2876,159 2927,159 C 2929,159 2931,159 2933,159 L 2982,248 3014,248 2962,154 C 2991,144 3005,121 3005,90 3005,50 2981,20 2927,20 L 2849,20 2849,248 2849,248 Z M 2876,134 L 2876,45 2926,45 C 2963,45 2977,63 2977,90 2977,118 2963,134 2926,134 L 2876,134 2876,134 Z"/>
        <path fill="rgb(255,255,255)" stroke="none" d="M 3157,178 C 3157,211 3132,225 3112,225 3090,225 3075,209 3075,184 L 3075,77 3048,77 3048,186 C 3048,230 3071,251 3104,251 3130,251 3147,237 3155,219 L 3157,219 3157,248 3184,248 3184,77 3157,77 3157,178 3157,178 Z"/>
        <path fill="rgb(255,255,255)" stroke="none" d="M 3355,116 C 3347,91 3328,75 3294,75 3257,75 3230,96 3230,125 3230,148 3244,164 3276,171 L 3305,178 C 3323,182 3331,190 3331,202 3331,217 3315,229 3290,229 3268,229 3255,220 3250,201 L 3225,207 C 3231,236 3255,252 3291,252 3331,252 3358,230 3358,201 3358,177 3343,162 3312,154 L 3287,148 C 3266,143 3257,136 3257,123 3257,109 3273,98 3294,98 3317,98 3327,111 3331,122 L 3355,116 3355,116 Z"/>
        <path fill="rgb(255,255,255)" stroke="none" d="M 3521,116 C 3513,91 3494,75 3460,75 3423,75 3396,96 3396,125 3396,148 3410,164 3442,171 L 3471,178 C 3488,182 3497,190 3497,202 3497,217 3481,229 3456,229 3434,229 3421,220 3416,201 L 3391,207 C 3397,236 3421,252 3456,252 3497,252 3524,230 3524,201 3524,177 3509,162 3478,154 L 3452,148 C 3432,143 3423,136 3423,123 3423,109 3438,98 3460,98 3483,98 3492,111 3497,122 L 3521,116 3521,116 Z"/>
        <path fill="rgb(255,255,255)" stroke="none" d="M 3564,248 L 3591,248 3591,77 3564,77 3564,248 3564,248 Z M 3578,49 C 3588,49 3597,41 3597,31 3597,21 3588,13 3578,13 3567,13 3559,21 3559,31 3559,41 3567,49 3578,49 L 3578,49 Z"/>
        <path fill="rgb(255,255,255)" stroke="none" d="M 3690,252 C 3721,252 3736,236 3742,225 L 3743,225 3743,248 3770,248 3770,136 C 3770,81 3728,75 3706,75 3680,75 3650,84 3636,115 L 3662,124 C 3667,112 3681,98 3707,98 3731,98 3743,111 3743,133 L 3743,134 C 3743,147 3730,145 3699,149 3666,154 3631,161 3631,200 3631,233 3657,252 3690,252 L 3690,252 Z M 3694,229 C 3673,229 3658,219 3658,201 3658,181 3676,175 3697,172 3708,171 3739,168 3743,162 L 3743,186 C 3743,208 3726,229 3694,229 L 3694,229 Z"/>
       </g>
      </g>
     </g>
    </g>
   </g>
  </g>
 </g>
</svg>